<svg xmlns="http://www.w3.org/2000/svg" width="21" height="30" fill="none"><path fill="#E5E5E5" d="M0 0h21v30H0z"/><g clip-path="url(#a)"><path fill="#4267B2" fill-rule="evenodd" d="M-121-323c0-5.523 4.477-10 10-10h243c5.523 0 10 4.477 10 10V27c0 5.523-4.477 10-10 10h-243c-5.523 0-10-4.477-10-10v-350Z" clip-rule="evenodd"/><path fill="#6F84D5" d="M5.758 13.728c-.297 0-.593.167-.857.3-.165.067-.33.167-.495.267-.165.1-.396.3-.429 0-.033-.267.1-.6.165-.833a1.5 1.5 0 0 1 .462-.633c.264-.234.56-.367.89-.4.792-.1 2.243.233 2.936.233.263 0 .527.1.725.267a.598.598 0 0 1 .165.233.487.487 0 0 1 .033.366c-.099.2-.396.267-.594.3-.33.067-.66.034-.956-.033-.858-.3-1.583-.067-2.045-.067Zm1.22 1.233c.198-.066.33-.2.495-.3.1-.033.165-.1.297-.1.066 0 .198.1.264.067.396-.1-.363-.5-.56-.533-.496-.067-1.023-.1-1.485.066-.165.067-.495.234-.594.4-.263.434.43.067.561.067.363.033.56.333.89.333h.132Zm7.388-1c-.396-.066-.792-.066-1.187.067a2.54 2.54 0 0 0-.528.233c-.066.034-.23.2-.23.267 0 .3.659-.133.758-.133.197 0 .33.266.527.333.1.033.198 0 .264-.033l.198-.2a.601.601 0 0 1 .66-.133c0-.234-.264-.367-.462-.4Zm1.649-1.332a1.527 1.527 0 0 0-1.32-.467c-.527.1-1.088.233-1.648.267h-.165c-.594.033-1.32.633-1.847.366-.198-.1-.363-.2-.594-.233-.099.2.1.433.264.6.264.266.033.433-.23.533-.166.067-.627.2-.199.367.165.066.33 0 .462.1.1.066.165.2.231.333.099.266.132.533.198.8.099.533.165 1.033.363 1.532.23.633-.132.667-.132 1.3 0 .1.066.233.165.267.099.033.165 0 .263-.034 1.518-.533-.758-3.965-.131-4.098.263 0 .494-.167.692-.367.99-.833 2.44-.933 3.43-.067.165.134.528.667.726.267.066-.133.033-.333-.033-.467-.1-.3-.231-.7-.495-1Zm-7.19 6.664c-.066.034-.132.1-.132.167 0 .1.132.2.231.267.165.1.363.133.594.133h.066c.165 0 .33-.034.429.1.033.066.066.133.066.233v.167l.032.033c.034.033.066.033.1.033.098 0 .164-.033.296-.133h.033c.066-.067.165-.133.231-.1.033 0 .066.033.1.033.032 0 .065.034.098.034.264.066.495-.167.56-.234.034-.033.1-.066.199-.133.197-.1.395-.233.395-.4 0-.1-.066-.166-.198-.233-.099-.067-.23-.067-.395-.033-.198.033-.363.1-.528.166-.066.034-.165.067-.23.1-.298.1-.562.134-.76.067a.984.984 0 0 1-.263-.133 2.008 2.008 0 0 0-.396-.167c-.165-.033-.396-.033-.528.033ZM7.11 20.626c.132-.166.231-.333.33-.466.066-.1.132-.2.231-.334.066-.1.165-.233.23-.333.1-.166.232-.366.364-.533l.033-.067c.23-.266.494-.566.428-.833 0-.033-.033-.166-.132-.2-.131-.033-.23.134-.362.3-.033.034-.033.067-.066.067-.132.166-.264.3-.396.466-.198.2-.396.434-.56.667-.133.166-.232.4-.363.566l-.033.1a.728.728 0 0 0-.1.167c-.131.167-.263.4-.263.566.033.134.099.134.165.167h.165c.099-.033.164-.166.23-.266.066.033.066 0 .1-.034Zm6.53-1.266a4.052 4.052 0 0 0-.33-.467l-.296-.4c-.033-.066-.33-.433-.528-.366-.066 0-.099.067-.099.233 0 .134.165.367.33.6l.033.067c.033.066.198.233.363.466.165.2.33.4.428.533.132.2.297.334.462.467a.212.212 0 0 0 .165.067c.033 0 .066-.034.099-.034.066-.066.033-.2-.066-.3-.132-.1-.462-.7-.56-.866Zm-1.187 2.966c-.198.1-.363.166-.56.2-.1.033-.231.033-.363.066-.132.034-.297.034-.43.1-.296.1-.56.067-.857.067-.098 0-.197 0-.296-.034H8.957c-.363-.033-.725-.1-.89.034a.253.253 0 0 0-.066.133c0 .167.23.267.462.367.197.066.395.1.56.133.066 0 .165.033.231.033.297.067.66.134 1.055.134.297 0 .594-.034.858-.167.33-.133.693-.333 1.121-.533.066-.034.1-.034.165-.067.099-.033.231-.1.297-.166.033-.034.066-.067.066-.1a.214.214 0 0 0 0-.2c-.066-.067-.231-.067-.363 0Zm.396-.5a4.023 4.023 0 0 0-.66-.067 7.132 7.132 0 0 0-1.187-.1c-.099 0-.23.034-.33.034-.198.033-.396.066-.56 0-.066-.034-.1-.034-.165-.067-.264-.1-.561-.2-.858-.167-.198.034-.363.067-.528.1-.131.034-.23.067-.362.067a.617.617 0 0 0-.264.066c-.1.034-.165.034-.264.067h-.066c-.132.034-.264.034-.363.1-.066.033-.198.133-.23.267 0 .066 0 .1.032.133.033.067.1.067.165.067.1 0 .264-.067.363-.1.066-.034.099-.034.132-.034l.099-.033c.23-.033.462-.1.693-.133.164-.034.362 0 .56 0h.264c.56.033 1.187.066 1.88.1h.89c.297.033.726.066.89-.1.034-.034.067-.1.034-.167 0-.033-.033-.1-.066-.1-.066.067-.1.067-.1.067Zm8.146-7.964c-.033.233-.1.433-.132.633l-.264.8c-.429 1.3-.857 2.632-1.583 3.798l-.066.134c-.165.266-.33.566-.692.7a.813.813 0 0 1-.264.033c-.165 0-.297-.034-.462-.1.033.1.033.233.066.333 0 .067.033.133.033.167.165.7.132 1.466-.099 2.166-.066.2-.165.433-.23.633-.133.333-.265.633-.33.966-.166.933-.561 1.533-1.089 2.333l-.033.033c-.132.2-.23.433-.363.633-.165.333-.33.667-.593.966-.726.767-1.814 1.7-3.002 1.7h-.098c-.99 0-1.88.067-2.87.2-.89.1-1.517-.566-2.176-1.066-.726-.567-1.155-1.4-1.55-2.2-.66-1.366-1.287-2.866-1.386-4.565v-.4c0-.466-.033-.933-.197-1.333 0-.033 0-.033-.033-.066l-.198.1c-.066.033-.165.033-.264.033-.198 0-.429-.067-.627-.2-.23-.133-.363-.333-.56-.533-.231-.267-.43-.5-.66-.733-.363-.334-.528-.8-.693-1.233-.033-.1-.099-.233-.132-.334-.065-.233-.164-.466-.197-.7a6.888 6.888 0 0 1-.231-1.399c-.033-.3-.033-.6.066-.9a1.67 1.67 0 0 1 .626-.9c.033-.066.033-.1.066-.166.363-.633.231-1.8.1-2.899-.034-.367-.1-.733-.1-1.1-.099-1.3.495-3.332.858-4.432.132-.433.56-.9.99-1.366.329-.366.626-.7.79-1 .33-.666.66-1.2 1.55-1.632.627-.3 1.188-.3 1.914-.334.989 0 1.945-.1 2.902-.333.363-.1.758-.2 1.286-.266 1.253-.2 3.232.566 3.957 1.033.627.4.957 1.866 1.056 2.299.429.033 1.913.2 2.803.9 1.023.8.66 2.499.495 3.332l-.033.1c-.165.766 0 1.366.495 2.033.395.533 1.088 2.699.923 3.132.132.233.264.6.23 1ZM3.35 19.727a32.308 32.308 0 0 0-.924-1.833c-.165-.333-.33-.667-.396-1.033-.065-.367.033-.667.198-1 .1-.167.165-.367.198-.567.1-.666-.494-1.266-1.154-1.133-.264.067-.56.2-.66.5-.066.2-.033.4-.033.6.033.467.132.933.231 1.366.066.234.132.434.198.667.165.433.297.966.66 1.266.264.233.494.5.725.767.132.166.264.3.429.4.132.1.297.133.396.1a.456.456 0 0 0 .132-.1Zm13.653-4.832c-.297-1.033-.066-2.166 0-3.233.033-.433-.099-1.233-.23-1.932-.067-.334-.133-.7-.165-1.033a7.192 7.192 0 0 0-.198-1.167c-.1-.4-.297-.766-.462-1.166-.198-.533-.99-1.333-2.045-1.333-.857 0-1.418.633-2.176.966-.792.367-1.419.267-2.012.2-.726-.1-1.484-.1-2.21-.166-.725-.067-1.484-.034-2.144.266-.956.467-1.385 1.067-1.846 1.7-.1.166-.231.3-.33.466-.495.633-.363 3.8-.264 4.932.033.267 0 .567 0 .833 0 .267.066.533.099.833.033.367.033.733.033 1.1v.033c.033.5.297.967.462 1.267.56.933.989 1.866 1.45 2.899.232.5.462 1.033.726 1.532.132.234.264.534.462.667.297.2.627.366.956.5.264.133.561.233.792.4.099.066.198.133.264.2.165.133.363.266.56.3.1 0 .231-.034.363-.067.066-.034.1-.034.165-.067.462-.133.924-.066 1.385.034.297.033.594.1.858.1.593 0 1.22-.3 1.748-.534.362-.166.758-.333 1.022-.633.462-.533.528-1.266.56-2.033.067-.833.1-1.699.76-2.332.131-.133.296-.267.46-.367a.72.72 0 0 0 .166-.1c.297-.2.56-.466.758-.766.198-.3.264-.533.33-.9.132-.533-.165-.933-.297-1.4Zm3.43-1.1a.944.944 0 0 0-.428-.866c-.297-.2-.561-.234-.891-.067-.528.233-.857 1.1-.857 1.633 0 .366.033.766.132 1.1.098.3.032.6 0 .9-.067.332-.33.566-.396.865-.033.2-.066.4-.1.567-.065.333-.131.633-.23.966l-.033.1c-.033.067-.033.134-.066.2.198.1.363.167.528.134.132-.034.264-.234.362-.434l.1-.133c.692-1.133 1.12-2.433 1.516-3.665l.264-.8c.033-.167.1-.333.1-.5Z"/></g><defs><clipPath id="a"><path fill="#fff" d="M-121-333h263V37h-263z"/></clipPath></defs></svg>