<svg xmlns="http://www.w3.org/2000/svg" width="20" height="20" fill="none"><path fill="#939699" d="m9.629 6.657-.153-.006-.122-.007-.148-.01-.123-.01a10.005 10.005 0 0 1-1.733-.299c-.04-.01-.08-.02-.12-.032l-.14-.04-.117-.034c-.048-.014-.095-.03-.143-.045l-.113-.036-.146-.05-.108-.038c-.051-.018-.101-.038-.152-.057l-.1-.038c-.056-.021-.112-.044-.167-.067l-.084-.034a10.538 10.538 0 0 1-.484-.218l-.078-.039c-.052-.025-.104-.05-.155-.077l-.091-.048-.139-.073-.096-.053-.13-.073-.097-.058a9.964 9.964 0 0 1-.125-.074l-.098-.061a11.28 11.28 0 0 1-.121-.077c-.033-.02-.065-.042-.098-.064a10.589 10.589 0 0 1-.834-.612l-.11-.091-.088-.075a10.46 10.46 0 0 1-.11-.095l-.085-.076-.109-.1-.082-.076-.11-.106-.077-.075-.115-.117-.068-.07-.008-.008a9.973 9.973 0 0 0-2.45 6.782h9.776V6.662l-.03-.001-.12-.004ZM10.353 6.213l.145-.006.112-.007.143-.01c.038-.002.075-.006.113-.009l.141-.013.113-.012a9.23 9.23 0 0 0 .14-.017l.113-.015a10.459 10.459 0 0 0 .887-.165 9.557 9.557 0 0 0 .492-.128l.104-.03.14-.044.1-.031.144-.049.096-.033c.05-.017.098-.035.147-.054l.09-.033.157-.062.077-.03.187-.08.044-.02c.078-.034.155-.07.232-.106l.017-.008.21-.102.068-.036.155-.08.082-.045.139-.077.088-.051.13-.076.09-.056.124-.077.092-.06a9.932 9.932 0 0 0 1.211-.928 9.781 9.781 0 0 0 .188-.173l.101-.097.083-.08.1-.102.08-.08.02-.023A10.027 10.027 0 0 0 10.222 0v6.217h.02l.11-.004Z"/><path fill="#939699" d="m2.752 3.108.02.022.08.082.1.1c.027.028.055.054.083.081l.1.097.086.08a9.412 9.412 0 0 0 .893.731 10.318 10.318 0 0 0 .208.147l.094.065.117.077.094.061.122.076.093.057.127.075.09.052c.045.026.09.05.136.075l.085.047.152.079.072.037c.067.034.134.067.202.099l.024.012.231.105.048.02c.061.027.122.054.184.079l.079.032.155.061.09.034.147.053.097.034.142.048.1.032.14.043.105.03.138.039.107.028a10.419 10.419 0 0 0 .744.164 9.61 9.61 0 0 0 .643.094l.113.012c.047.005.094.01.14.013l.114.01.142.01.113.006.145.006.11.004h.02V0a10.027 10.027 0 0 0-7.025 3.108ZM2.661 16.79l.01-.011.068-.066.114-.108.076-.07.109-.1.08-.071.108-.094.085-.071a9.342 9.342 0 0 1 .704-.54 11.772 11.772 0 0 1 .512-.337l.117-.07.097-.058.12-.069.097-.054.125-.067c.032-.018.063-.035.095-.051l.133-.068.09-.045.15-.072.077-.036a10.675 10.675 0 0 1 .47-.203l.077-.03.165-.064.094-.034.15-.054.102-.034.144-.048.106-.033c.047-.014.094-.029.142-.042l.11-.031.139-.039.112-.028.138-.035.114-.026a10.927 10.927 0 0 1 .765-.143l.14-.02.117-.014a8.22 8.22 0 0 1 .4-.041l.119-.01.143-.009.117-.006.147-.006.115-.004h.024v-3.114H.023A9.978 9.978 0 0 0 2.66 16.79ZM10.222 13.778h.024l.115.004.147.006.117.006.143.01c.04.002.08.005.118.009l.142.012a11.494 11.494 0 0 1 1.027.152 16.86 16.86 0 0 1 .368.08l.138.035.112.028.14.039.11.03.14.043.107.033.144.048.102.034.15.054.094.034c.055.02.11.042.165.064l.078.03a10.274 10.274 0 0 1 .47.203l.076.037.15.07.09.047.133.067.095.05.125.068.097.055.12.068.097.058a9.633 9.633 0 0 1 .939.633 8.882 8.882 0 0 1 .287.225l.106.088.086.072c.036.03.07.062.106.093l.082.072.108.099.077.07.113.109.068.066.01.01a9.978 9.978 0 0 0 2.64-6.125h-9.756v3.114ZM17.548 3.438l-.008.009-.07.07c-.037.04-.075.078-.113.116l-.077.075-.11.106-.082.076-.109.1-.085.076a10.63 10.63 0 0 1-.11.095l-.088.075a10.298 10.298 0 0 1-.945.704l-.096.063a10.678 10.678 0 0 1-.346.213l-.096.056c-.043.026-.088.05-.132.075l-.094.052-.14.074-.09.047c-.052.027-.104.052-.157.078l-.075.038a10.463 10.463 0 0 1-.485.218l-.084.034c-.055.023-.11.046-.166.067l-.101.038c-.05.02-.101.039-.152.057l-.109.038-.145.05-.113.036-.143.045-.116.034-.141.04-.12.032a10.498 10.498 0 0 1-.928.198 10.783 10.783 0 0 1-.805.101l-.123.01-.148.01-.122.007-.153.006-.119.004h-.03v3.559h9.775a9.973 9.973 0 0 0-2.449-6.781Z"/><path fill="#939699" d="m9.66 14.226-.147.005-.106.007-.141.008-.108.009-.138.012-.108.011a10.32 10.32 0 0 0-.863.13 7.374 7.374 0 0 0-.342.074l-.136.033-.1.025-.137.037-.097.026-.139.042-.093.028-.143.046-.087.028-.15.053-.078.028c-.057.02-.113.043-.17.064l-.055.022c-.151.06-.3.123-.449.19l-.04.018-.178.084-.069.034c-.05.024-.098.049-.147.074l-.08.042-.134.071-.084.047a8.348 8.348 0 0 0-.127.072l-.087.05-.121.074-.088.054a11.02 11.02 0 0 0-.52.349 10.507 10.507 0 0 0-.198.144l-.086.067a9.277 9.277 0 0 0-.298.239l-.085.07-.103.09-.083.073-.102.093-.08.074-.103.098-.076.074-.014.014a9.91 9.91 0 0 0 6.808 2.886v-5.773H9.76l-.1.004ZM16.94 17.021l-.103-.098c-.026-.025-.053-.05-.08-.073-.034-.032-.068-.064-.103-.094l-.081-.073a9.731 9.731 0 0 0-1.085-.827L15.4 15.8a9.834 9.834 0 0 0-.328-.202l-.086-.051-.128-.072-.083-.047a9.22 9.22 0 0 0-.136-.072l-.077-.04-.15-.075-.067-.034a10.13 10.13 0 0 0-.18-.084l-.038-.018a9.87 9.87 0 0 0-.45-.19l-.053-.021a10.75 10.75 0 0 0-.172-.065c-.025-.01-.05-.018-.076-.027-.05-.018-.1-.036-.152-.053l-.086-.029a10.024 10.024 0 0 0-.143-.046l-.093-.028a9.3 9.3 0 0 0-.14-.041l-.096-.027a8.896 8.896 0 0 0-.137-.037l-.1-.025-.136-.033-.103-.023-.134-.03-.105-.02a10.317 10.317 0 0 0-.376-.066l-.107-.017-.136-.019-.107-.013-.137-.016-.108-.01c-.046-.005-.092-.01-.139-.013l-.107-.009-.141-.008c-.035-.002-.07-.005-.106-.006l-.146-.006-.102-.003h-.017v5.772a9.91 9.91 0 0 0 6.807-2.886l-.013-.014-.076-.074Z"/></svg>